<?xml version="1.0" encoding="utf-8"?>
<!-- Generator: Adobe Illustrator 16.0.0, SVG Export Plug-In . SVG Version: 6.00 Build 0)  -->
<!DOCTYPE svg PUBLIC "-//W3C//DTD SVG 1.1//EN" "http://www.w3.org/Graphics/SVG/1.1/DTD/svg11.dtd">
<svg version="1.1" id="Layer_1" xmlns="http://www.w3.org/2000/svg" xmlns:xlink="http://www.w3.org/1999/xlink" x="0px" y="0px"
	 width="274.96px" height="51.02px" viewBox="0 0 274.96 51.02" enable-background="new 0 0 274.96 51.02" xml:space="preserve">
<g>
	<g>
		<linearGradient id="SVGID_1_" gradientUnits="userSpaceOnUse" x1="239.771" y1="36.6299" x2="239.771" y2="13.623">
			<stop  offset="0" style="stop-color:#47166B"/>
			<stop  offset="0.4479" style="stop-color:#5C2F92"/>
			<stop  offset="0.6933" style="stop-color:#6B3293"/>
			<stop  offset="0.8517" style="stop-color:#733B96"/>
			<stop  offset="1" style="stop-color:#783F98"/>
		</linearGradient>
		<path fill="url(#SVGID_1_)" d="M248.585,13.623h-0.959c-0.417,0-0.749,0.336-0.749,0.746v14.404l-9.118-13.134
			c-0.034-0.052-0.766-1.252-1.854-1.716c-0.342-0.205-0.956-0.287-1.962-0.287c-0.248,0-3.459,0-3.459,0
			c-0.133,0-0.242,0.091-0.263,0.219c-0.031,0.123,0.031,0.245,0.15,0.291l0.363,0.166c0.694,0.311,1.128,0.842,1.128,2.581v18.985
			c0,0.414,0.332,0.752,0.74,0.752h0.961c0.413,0,0.744-0.338,0.744-0.752l0.01-15.66l10.23,14.668
			c0.658,0.879,1.333,1.564,2.969,1.744h1.549c0.148,0,0.262-0.125,0.262-0.266V14.369
			C249.328,13.959,249.002,13.623,248.585,13.623z"/>
		<linearGradient id="SVGID_2_" gradientUnits="userSpaceOnUse" x1="194.0249" y1="36.6191" x2="194.0249" y2="13.6201">
			<stop  offset="0" style="stop-color:#47166B"/>
			<stop  offset="0.4479" style="stop-color:#5C2F92"/>
			<stop  offset="0.6933" style="stop-color:#6B3293"/>
			<stop  offset="0.8517" style="stop-color:#733B96"/>
			<stop  offset="1" style="stop-color:#783F98"/>
		</linearGradient>
		<path fill="url(#SVGID_2_)" d="M199.154,24.162c0.91-0.27,1.617-0.71,2.26-1.345c0.997-0.988,1.516-2.187,1.516-3.737
			c0-1.52-0.708-2.969-2.119-4.049c-1.421-1.079-3.571-1.411-6.372-1.411h-6.96l-3.102,0.013c-0.13,0-0.242,0.095-0.259,0.225
			c-0.026,0.123,0.043,0.251,0.169,0.296l0.42,0.154c0.696,0.307,1.122,0.846,1.122,2.585v16.51c0,1.847,1.248,3.216,3.116,3.216
			h0.547h5.261c3.166,0,5.254-0.556,6.92-1.908c1.348-1.096,2.266-2.802,2.266-4.854c0-1.517-0.549-2.796-1.479-3.801
			C201.614,25.149,200.435,24.5,199.154,24.162z M190.991,15.709h2.371c2.015,0,3.09,0.525,3.67,1.11
			c0.708,0.713,0.98,1.587,0.98,2.535c0,1.159-0.374,2.048-1.213,2.753c-0.876,0.734-1.925,1.046-3.777,1.046h-2.031V15.709z
			 M197.605,33.125c-0.728,0.764-1.918,1.501-4.008,1.501h-1.228c-0.674,0-1.379-0.267-1.379-1.253v-7.962h2.573
			c1.579,0,2.763,0.305,3.704,1.083c1.028,0.844,1.586,2.121,1.586,3.501C198.854,31.238,198.309,32.383,197.605,33.125z"/>
		<linearGradient id="SVGID_3_" gradientUnits="userSpaceOnUse" x1="217.4624" y1="36.6152" x2="217.4624" y2="13.6201">
			<stop  offset="0" style="stop-color:#47166B"/>
			<stop  offset="0.4479" style="stop-color:#5C2F92"/>
			<stop  offset="0.6933" style="stop-color:#6B3293"/>
			<stop  offset="0.8517" style="stop-color:#733B96"/>
			<stop  offset="1" style="stop-color:#783F98"/>
		</linearGradient>
		<path fill="url(#SVGID_3_)" d="M220.359,16.11c-0.63-1.564-1.972-2.491-4.107-2.491h-3.396c-0.362,0-0.432,0.433-0.085,0.539
			c0.378,0.11,0.646,0.255,0.901,0.489c0.288,0.255,0.471,0.554,0.626,0.988l-6.825,20.168c-0.171,0.473,0.098,0.812,0.477,0.812
			h1.146c0.571,0,0.783-0.323,0.936-0.765l1.914-5.845h7.734l1.656,4.874c0.348,0.971,1.278,1.735,2.491,1.735h3.446
			c0.144,0,0.26-0.122,0.222-0.272L220.359,16.11z M212.6,28.004l3.134-9.584l3.258,9.584H212.6z"/>
		<linearGradient id="SVGID_4_" gradientUnits="userSpaceOnUse" x1="264.5991" y1="36.6152" x2="264.5991" y2="13.6201">
			<stop  offset="0" style="stop-color:#47166B"/>
			<stop  offset="0.4479" style="stop-color:#5C2F92"/>
			<stop  offset="0.6933" style="stop-color:#6B3293"/>
			<stop  offset="0.8517" style="stop-color:#733B96"/>
			<stop  offset="1" style="stop-color:#783F98"/>
		</linearGradient>
		<path fill="url(#SVGID_4_)" d="M274.937,36.292l-8.252-14.942l4.845-5.824c0.387-0.427,0.722-0.73,1.105-0.952
			c0.426-0.231,0.849-0.339,1.282-0.395c0.341-0.046,0.324-0.561-0.04-0.561h-1.804c-1.374,0-2.203,0.472-2.815,1.143l-8.138,9.718
			v-7.746c-0.048-2.32-1.331-2.969-2.439-3.107h-4.174c-0.133,0-0.238,0.095-0.264,0.229c-0.028,0.123,0.055,0.246,0.169,0.291
			l0.42,0.154c0.694,0.314,1.129,0.854,1.129,2.584v19.468c0,0.162,0.087,0.263,0.258,0.263h4.659c0.163,0,0.238-0.105,0.238-0.263
			l0.004-8.298l1.988-2.394l4.965,8.878c0.879,1.485,2.266,2.076,3.953,2.076h2.683C274.937,36.615,275,36.433,274.937,36.292z"/>
	</g>
	<g>
		<linearGradient id="SVGID_5_" gradientUnits="userSpaceOnUse" x1="160.8589" y1="2.0757" x2="160.8589" y2="47.5492">
			<stop  offset="0" style="stop-color:#9DA6AB"/>
			<stop  offset="0.1907" style="stop-color:#B0B7BC"/>
			<stop  offset="0.5202" style="stop-color:#CCD1D4"/>
			<stop  offset="0.8016" style="stop-color:#DFE1E3"/>
			<stop  offset="1" style="stop-color:#E6E7E8"/>
		</linearGradient>
		<path fill="url(#SVGID_5_)" d="M171.594,13.614l-0.885,0.848c0,0,0,18.149,0,19.522c0,5.044-1.36,8.329-4.781,9.504
			c-1.79,0.615-3.824,0.613-5.675,0.282c-1.793-0.319-3.386-1.184-4.405-2.727c-1.619-2.452-1.771-6.244-1.769-9.091
			c0.002-1.612,0.082-21.182,0.068-21.676c-0.021-0.618-0.08-1.227-0.172-1.836c-0.203-1.179-0.548-2.34-1.174-3.37
			c-0.698-1.146-1.756-2.046-2.687-2.995c1.211,1.232,1.894,2.882,2.23,4.555c0.184,0.903,0.271,1.826,0.284,2.749
			c0.01,0.649-0.069,20.669-0.07,22.69c-0.003,1.901-0.02,3.728,0.293,5.679c0.365,2.282,1.094,4.701,2.913,6.252
			c0.697,0.595,1.512,1.011,2.38,1.292c0.736,0.252,1.52,0.362,2.292,0.449c1.298,0.118,2.742,0.198,4.013-0.129
			c1.207-0.151,2.557-0.754,3.493-1.549c2.139-1.536,3.096-4.437,3.441-6.917c0.21-1.511,0.207-3.031,0.214-4.551
			C171.607,30.729,171.592,13.858,171.594,13.614L171.594,13.614z"/>
		<linearGradient id="SVGID_6_" gradientUnits="userSpaceOnUse" x1="131.6465" y1="0.4316" x2="131.6465" y2="8.8472">
			<stop  offset="0" style="stop-color:#EFF9FE"/>
			<stop  offset="0.4843" style="stop-color:#E8EDF0"/>
			<stop  offset="1" style="stop-color:#E6E7E8"/>
		</linearGradient>
		<path fill="url(#SVGID_6_)" d="M130.517,0.001c0,0.005,0,0.012,0,0.017c0,1.332,0,7.748,0,7.748s1.157,0.39,2.257,0.761
			l0.002-7.275C132.026,0.836,131.289,0.418,130.517,0.001z"/>
		<linearGradient id="SVGID_7_" gradientUnits="userSpaceOnUse" x1="143.8501" y1="50.1621" x2="143.8501" y2="-0.0228">
			<stop  offset="0" style="stop-color:#7C8A96"/>
			<stop  offset="0.0859" style="stop-color:#9DA6AB"/>
			<stop  offset="0.2147" style="stop-color:#E6E7E8"/>
		</linearGradient>
		<path fill="url(#SVGID_7_)" d="M143.599,42.282c-0.269-1.139-0.404-2.372-0.405-3.707l-0.019-36.848
			c-0.228-0.172-0.456-0.341-0.685-0.513c-0.537-0.402-1.115-0.802-1.653-1.206c0.001,2.039-0.047,37.691,0.006,39.773
			c0.1,3.865,1.275,7.577,4.361,10.254c0.399-0.49,0.801-0.977,1.201-1.465c0.159-0.194,0.317-0.389,0.476-0.581
			c-0.019-0.016-0.036-0.028-0.053-0.044C145.04,46.395,143.872,43.419,143.599,42.282z"/>
		<g>
			
				<radialGradient id="SVGID_8_" cx="148.5532" cy="6.188" r="48.1046" gradientTransform="matrix(0.9844 0 0 0.9843 3.5148 -3.8945)" gradientUnits="userSpaceOnUse">
				<stop  offset="0" style="stop-color:#FFE4CA"/>
				<stop  offset="0.2699" style="stop-color:#F58233"/>
				<stop  offset="0.546" style="stop-color:#F26524"/>
				<stop  offset="0.5742" style="stop-color:#E25F35"/>
				<stop  offset="0.6651" style="stop-color:#B94F5A"/>
				<stop  offset="0.7512" style="stop-color:#98436F"/>
				<stop  offset="0.8301" style="stop-color:#803A7E"/>
				<stop  offset="0.9004" style="stop-color:#6D3388"/>
				<stop  offset="0.9594" style="stop-color:#61308E"/>
				<stop  offset="1" style="stop-color:#5C2F92"/>
			</radialGradient>
			<path fill="url(#SVGID_8_)" d="M130.517,0.001h-7.338c0.018,0.07,0.121,0.571,0.355,1.145c0.233,0.574,0.598,1.334,1.139,2.147
				c0.543,0.812,1.263,1.679,2.21,2.464c0.947,0.788,2.182,1.494,3.633,1.988C130.514,6.571,130.517,0.04,130.517,0.001z"/>
			
				<radialGradient id="SVGID_9_" cx="148.5522" cy="6.188" r="48.1012" gradientTransform="matrix(0.9844 0 0 0.9843 3.5148 -3.8945)" gradientUnits="userSpaceOnUse">
				<stop  offset="0" style="stop-color:#FFE4CA"/>
				<stop  offset="0.2699" style="stop-color:#F58233"/>
				<stop  offset="0.546" style="stop-color:#F26524"/>
				<stop  offset="0.5742" style="stop-color:#E25F35"/>
				<stop  offset="0.6651" style="stop-color:#B94F5A"/>
				<stop  offset="0.7512" style="stop-color:#98436F"/>
				<stop  offset="0.8301" style="stop-color:#803A7E"/>
				<stop  offset="0.9004" style="stop-color:#6D3388"/>
				<stop  offset="0.9594" style="stop-color:#61308E"/>
				<stop  offset="1" style="stop-color:#5C2F92"/>
			</radialGradient>
			<path fill="url(#SVGID_9_)" d="M143.309,47.915c-0.543-0.77-0.999-1.604-1.364-2.501c-0.366-0.897-0.642-1.857-0.826-2.882
				c-0.187-1.023-0.28-2.112-0.281-3.263V0.009h-8.061l-0.005,33.253c0.003,1.576-0.05,3.643,0.296,5.561
				c0.364,2.029,2.052,5.998,5.448,8.47c1.844,1.344,3.66,2.308,6.688,2.743C144.486,49.393,143.854,48.686,143.309,47.915z"/>
			
				<radialGradient id="SVGID_10_" cx="148.5542" cy="6.1865" r="48.1003" gradientTransform="matrix(0.9844 0 0 0.9843 3.5148 -3.8945)" gradientUnits="userSpaceOnUse">
				<stop  offset="0" style="stop-color:#FFE4CA"/>
				<stop  offset="0.2699" style="stop-color:#F58233"/>
				<stop  offset="0.546" style="stop-color:#F26524"/>
				<stop  offset="0.5742" style="stop-color:#E25F35"/>
				<stop  offset="0.6651" style="stop-color:#B94F5A"/>
				<stop  offset="0.7512" style="stop-color:#98436F"/>
				<stop  offset="0.8301" style="stop-color:#803A7E"/>
				<stop  offset="0.9004" style="stop-color:#6D3388"/>
				<stop  offset="0.9594" style="stop-color:#61308E"/>
				<stop  offset="1" style="stop-color:#5C2F92"/>
			</radialGradient>
			<path fill="url(#SVGID_10_)" d="M161.885,42.62c1.839,0.1,3.889-0.453,5.305-1.652c1.469-1.244,2.143-3.111,2.172-4.989
				c0-5.055,0-22.364,0-22.364s-1.515,0.006-2.997,0.006c-0.892,0-1.732,0.068-2.302,0.366c-1.819,0.945-2.178,2.38-2.178,4.082
				C161.885,21.299,161.885,41.649,161.885,42.62C161.901,42.62,161.87,42.619,161.885,42.62z"/>
			
				<radialGradient id="SVGID_11_" cx="148.5522" cy="6.1875" r="48.1006" gradientTransform="matrix(0.9844 0 0 0.9843 3.5148 -3.8945)" gradientUnits="userSpaceOnUse">
				<stop  offset="0" style="stop-color:#FFE4CA"/>
				<stop  offset="0.2699" style="stop-color:#F58233"/>
				<stop  offset="0.546" style="stop-color:#F26524"/>
				<stop  offset="0.5742" style="stop-color:#E25F35"/>
				<stop  offset="0.6651" style="stop-color:#B94F5A"/>
				<stop  offset="0.7512" style="stop-color:#98436F"/>
				<stop  offset="0.8301" style="stop-color:#803A7E"/>
				<stop  offset="0.9004" style="stop-color:#6D3388"/>
				<stop  offset="0.9594" style="stop-color:#61308E"/>
				<stop  offset="1" style="stop-color:#5C2F92"/>
			</radialGradient>
			<path fill="url(#SVGID_11_)" d="M171.594,13.614v20.144c-0.004,0.763-0.017,1.912-0.185,3.201
				c-0.168,1.29-0.487,2.721-1.108,4.05c-0.618,1.329-1.535,2.555-2.891,3.438c-1.349,0.881-3.137,1.418-5.499,1.375
				c-1.322-0.025-2.569-0.158-3.695-0.508c-1.125-0.348-2.129-0.913-2.968-1.808c-0.839-0.894-1.513-2.113-1.977-3.774
				c-0.463-1.66-0.715-3.762-0.713-6.417c0,0,0.105-23.411,0.058-24.463c-0.05-1.051-0.216-2.403-0.679-3.732
				c-0.465-1.332-1.222-2.64-2.452-3.608c-1.227-0.965-2.921-1.545-5.255-1.51c-0.093,0.002-0.97,0-1.056,0.001v1.725l0.019,36.848
				c0.001,1.335,0.137,2.568,0.405,3.707c0.272,1.137,1.44,4.112,3.229,5.664c0.017,0.016,0.034,0.028,0.053,0.044
				c2.249,1.933,3.819,2.16,5.877,2.34c3.34,0.294,6.171,0.069,8.38-0.288c2.216-0.359,3.871-0.965,5.743-2.097
				c1.876-1.135,3.647-3.189,4.801-5.195c1.571-2.728,1.963-5.805,1.963-9.328V13.614H171.594z"/>
		</g>
	</g>
	<g>
		<g>
			<linearGradient id="SVGID_12_" gradientUnits="userSpaceOnUse" x1="65.4531" y1="37.083" x2="65.4531" y2="13.1724">
				<stop  offset="0" style="stop-color:#47166B"/>
				<stop  offset="0.4479" style="stop-color:#5C2F92"/>
				<stop  offset="0.6933" style="stop-color:#6B3293"/>
				<stop  offset="0.8517" style="stop-color:#733B96"/>
				<stop  offset="1" style="stop-color:#783F98"/>
			</linearGradient>
			<path fill="url(#SVGID_12_)" d="M68.521,23.063l-3.144-1.671l-0.039-0.018c-1.198-0.646-2.838-1.526-2.838-2.989
				c0-1.381,1.125-2.888,3.59-2.944l0.1-0.002c2.182,0,4.694,1.535,5.048,4.377c0.011,0.086,0.063,0.164,0.143,0.201
				c0.078,0.041,0.17,0.041,0.247,0c0.021-0.008,0.451-0.242,0.815-0.628c0.204-0.197,1.217-1.263,1.109-2.685
				c-0.052-0.685-0.213-1.103-0.711-1.491c-0.146-0.113-0.352-0.233-0.366-0.241c-2.137-1.192-4.253-1.8-6.294-1.8
				c-2.233,0-4.257,0.756-5.708,2.134c-1.233,1.201-1.912,2.819-1.912,4.557c0,3.819,3.156,5.558,5.04,6.599l2.759,1.521
				c1.819,0.998,3.538,1.938,3.538,3.792c0,2.53-2.574,2.991-4.109,3.04c-2.971,0.101-6.447-1.788-6.929-4.999
				c-0.014-0.094-0.078-0.175-0.17-0.208c-0.09-0.035-0.194-0.016-0.263,0.045c-1.59,1.327-1.791,2.623-1.683,3.477
				c0.146,1.143,0.852,1.884,1.484,2.266c0.554,0.358,1.403,0.694,1.705,0.79c1.72,0.555,3.672,0.898,5.092,0.898
				c2.759,0,4.78-0.643,6.563-2.086c1.749-1.446,2.602-3.236,2.602-5.47C74.188,26.856,72.917,25.407,68.521,23.063z"/>
			<linearGradient id="SVGID_13_" gradientUnits="userSpaceOnUse" x1="87.8086" y1="37.083" x2="87.8086" y2="13.1724">
				<stop  offset="0" style="stop-color:#47166B"/>
				<stop  offset="0.4479" style="stop-color:#5C2F92"/>
				<stop  offset="0.6933" style="stop-color:#6B3293"/>
				<stop  offset="0.8517" style="stop-color:#733B96"/>
				<stop  offset="1" style="stop-color:#783F98"/>
			</linearGradient>
			<path fill="url(#SVGID_13_)" d="M87.808,13.172c-5.139,0-10.669,3.741-10.669,11.957c0,8.211,5.53,11.955,10.669,11.955
				c5.138,0,10.67-3.743,10.67-11.955C98.478,16.913,92.946,13.172,87.808,13.172z M91.461,32.35
				c-1.166,2.037-2.629,2.465-3.653,2.465c-1.023,0-2.488-0.428-3.653-2.465c-1.186-2.104-1.347-4.831-1.347-7.221
				c0-2.392,0.161-5.12,1.347-7.222c1.165-2.038,2.63-2.466,3.653-2.466c1.024,0,2.488,0.428,3.652,2.466
				c1.188,2.101,1.346,4.828,1.346,7.222S92.648,30.246,91.461,32.35z"/>
			<linearGradient id="SVGID_14_" gradientUnits="userSpaceOnUse" x1="50.0684" y1="36.6338" x2="50.0684" y2="13.6211">
				<stop  offset="0" style="stop-color:#47166B"/>
				<stop  offset="0.4479" style="stop-color:#5C2F92"/>
				<stop  offset="0.6933" style="stop-color:#6B3293"/>
				<stop  offset="0.8517" style="stop-color:#733B96"/>
				<stop  offset="1" style="stop-color:#783F98"/>
			</linearGradient>
			<path fill="url(#SVGID_14_)" d="M54.182,36.118l-0.389-0.156c-0.693-0.31-1.124-0.852-1.124-2.579l0.003-16.656
				c-0.042-2.321-1.333-2.969-2.439-3.106h-4.181c-0.129,0-0.243,0.096-0.263,0.223c-0.023,0.129,0.048,0.251,0.171,0.298
				l0.421,0.152c0.696,0.309,1.13,0.85,1.13,2.583v15.648c0.08,2.016,0.36,3.843,2.907,4.108h3.664c0.127,0,0.239-0.094,0.264-0.217
				C54.369,36.292,54.3,36.167,54.182,36.118z"/>
			<linearGradient id="SVGID_15_" gradientUnits="userSpaceOnUse" x1="9.7139" y1="36.8584" x2="9.7139" y2="13.6172">
				<stop  offset="0" style="stop-color:#47166B"/>
				<stop  offset="0.4479" style="stop-color:#5C2F92"/>
				<stop  offset="0.6933" style="stop-color:#6B3293"/>
				<stop  offset="0.8517" style="stop-color:#733B96"/>
				<stop  offset="1" style="stop-color:#783F98"/>
			</linearGradient>
			<path fill="url(#SVGID_15_)" d="M18.679,13.617h-0.967c-0.412,0-0.748,0.336-0.748,0.746c0,0.322,0,15.26,0,15.26
				c0,2.069-0.297,3.292-1.923,4.232c-1.104,0.646-2.369,0.734-3.46,0.734c-1.618,0-2.836-0.445-3.624-1.326
				c-1.084-1.179-1.084-2.973-1.084-3.736c0,0-0.018-13.189,0-13.376c0.023-0.724-0.177-1.31-0.595-1.743
				c-0.502-0.516-1.301-0.792-2.312-0.792H0.267c-0.128,0-0.239,0.094-0.262,0.221c-0.023,0.127,0.048,0.251,0.171,0.296l0.41,0.154
				c0.698,0.311,1.13,0.85,1.13,2.581v11.308c0,2.029,0.233,4.354,1.964,6.221c1.554,1.653,3.992,2.46,7.45,2.46
				c1.869,0,4.567-0.217,6.451-2.103c1.702-1.702,1.845-3.657,1.845-5.678l0.002-14.715C19.427,13.953,19.092,13.617,18.679,13.617z
				"/>
			<linearGradient id="SVGID_16_" gradientUnits="userSpaceOnUse" x1="32.4316" y1="36.6416" x2="32.4316" y2="13.6152">
				<stop  offset="0" style="stop-color:#47166B"/>
				<stop  offset="0.4479" style="stop-color:#5C2F92"/>
				<stop  offset="0.6933" style="stop-color:#6B3293"/>
				<stop  offset="0.8517" style="stop-color:#733B96"/>
				<stop  offset="1" style="stop-color:#783F98"/>
			</linearGradient>
			<path fill="url(#SVGID_16_)" d="M41.255,13.615h-0.966c-0.41,0-0.75,0.334-0.75,0.746v14.417l-9.125-13.15
				c-0.03-0.051-0.762-1.248-1.847-1.716c-0.348-0.206-0.957-0.282-1.97-0.282c-0.24,0-3.466,0-3.466,0
				c-0.126,0-0.237,0.09-0.262,0.215c-0.026,0.121,0.038,0.246,0.155,0.298l0.365,0.158c0.695,0.311,1.125,0.85,1.125,2.581
				l0.002,19.012c0,0.41,0.334,0.746,0.747,0.746h0.962c0.412,0,0.746-0.336,0.746-0.746l0.005-15.682l10.235,14.682
				c0.668,0.881,1.341,1.564,2.981,1.746h1.543c0.148,0,0.269-0.121,0.269-0.268V14.361C42.001,13.949,41.668,13.615,41.255,13.615z
				"/>
			<linearGradient id="SVGID_17_" gradientUnits="userSpaceOnUse" x1="111.1357" y1="36.6416" x2="111.1357" y2="13.6152">
				<stop  offset="0" style="stop-color:#47166B"/>
				<stop  offset="0.4479" style="stop-color:#5C2F92"/>
				<stop  offset="0.6933" style="stop-color:#6B3293"/>
				<stop  offset="0.8517" style="stop-color:#733B96"/>
				<stop  offset="1" style="stop-color:#783F98"/>
			</linearGradient>
			<path fill="url(#SVGID_17_)" d="M119.961,13.615h-0.967c-0.412,0-0.75,0.334-0.75,0.746v14.417l-9.125-13.15
				c-0.031-0.051-0.764-1.248-1.849-1.714c-0.346-0.206-0.956-0.282-1.968-0.282c-0.243,0-3.469,0-3.469,0
				c-0.125,0-0.234,0.088-0.262,0.213c-0.023,0.123,0.038,0.246,0.155,0.298l0.366,0.158c0.695,0.311,1.125,0.85,1.125,2.581
				l0.001,19.012c0,0.41,0.333,0.746,0.746,0.746h0.962c0.41,0,0.746-0.336,0.746-0.746l0.004-15.68l10.235,14.68
				c0.668,0.881,1.342,1.564,2.982,1.746h1.543c0.148,0,0.268-0.121,0.268-0.268V14.361
				C120.705,13.949,120.372,13.615,119.961,13.615z"/>
		</g>
	</g>
</g>
</svg>
