<?xml version="1.0" encoding="utf-8"?>
<!-- Generator: Adobe Illustrator 16.0.0, SVG Export Plug-In . SVG Version: 6.00 Build 0)  -->
<!DOCTYPE svg PUBLIC "-//W3C//DTD SVG 1.1//EN" "http://www.w3.org/Graphics/SVG/1.1/DTD/svg11.dtd">
<svg version="1.1" id="Layer_1" xmlns="http://www.w3.org/2000/svg" xmlns:xlink="http://www.w3.org/1999/xlink" x="0px" y="0px"
	 width="295px" height="46.924px" viewBox="0 0 295 46.924" enable-background="new 0 0 295 46.924" xml:space="preserve">
<g>
	<g>
		<path fill="#C2A680" d="M173.474,32.971c-1.221-2.013-2.767-3.66-4.559-4.777c-4.628-2.886-6.783-6.237-6.783-10.548
			c0-1.718,0.343-3.297,0.991-4.566l0.746-1.458l-1.545-0.546c-1.147-0.404-1.956-1.423-2.106-2.604l5.417,1.944l0.519-0.223
			c0.924-0.397,1.991-0.599,3.166-0.599c2.09,0,3.754,0.632,4.685,1.778c0.418,0.517,0.691,1.132,0.816,1.846
			c-0.508-0.187-1.053-0.287-1.616-0.287c-2.6,0-4.715,2.116-4.715,4.715c0,2.529,1.801,3.939,3.389,5.183
			c1.743,1.365,3.389,2.654,3.389,5.477C175.268,30.168,174.666,31.733,173.474,32.971 M178.136,28.305
			c0-4.219-2.595-6.25-4.489-7.734c-1.463-1.145-2.29-1.846-2.29-2.925c0-1.142,0.959-1.847,1.847-1.847
			c2.437,0,2.731,3.106,2.731,3.106s1.286-1.038,1.607-2.613c0.688-3.37-0.322-5.507-1.312-6.726
			c-1.485-1.831-3.939-2.84-6.912-2.84c-1.349,0-2.61,0.208-3.754,0.618l-7.391-2.653l-0.482,1.354
			c-0.248,0.691-0.369,1.355-0.369,2.025c0,2.043,1.034,3.916,2.68,5.024c-0.486,1.377-0.741,2.926-0.741,4.552
			c0,5.324,2.661,9.569,8.135,12.981c3.742,2.333,6.255,7.927,6.255,13.918v1.434h2.869v-1.434c0-3.188-0.61-6.246-1.707-8.907
			C176.992,33.79,178.136,31.271,178.136,28.305"/>
		<path fill="#C2A680" d="M160.866,30.206c-1.924-0.685-3.18-1.14-4.783-1.721c-1.452-0.528-3.189-1.158-5.961-2.153
			c-4.914-1.764-8.214-6.458-8.214-11.682c0-4.011,1.845-6.834,3.282-8.422c0.962,3.119,3.44,8.25,9.587,10.416
			c0.61,0.215,1.196,0.396,1.768,0.561c0.028-0.996,0.147-1.959,0.364-2.868c-0.384-0.121-0.775-0.25-1.178-0.397
			c-7.176-2.608-8.229-10.255-8.268-10.579L147.191,1l-1.962,1.342c-0.253,0.173-6.188,4.328-6.188,12.308
			c0,6.43,4.063,12.209,10.111,14.38c2.769,0.994,4.502,1.623,5.953,2.15c0.827,0.299,1.563,0.567,2.346,0.849
			c-1.741,2.598-4.172,3.729-7.928,3.729h-1.435v7.354h-1.342c-0.879,0-1.594-0.714-1.594-1.594v-7.813
			c0-2.47-2.01-4.479-4.48-4.479h-1.434v2.868h1.434c0.775,0,1.612,0.616,1.612,1.611v7.813c0,2.461,2.001,4.462,4.462,4.462h1.342
			h2.979h13.926v-1.435c0-2.202-0.748-4.39-2.001-5.85l-0.933-1.087l-2.178,1.866l0.934,1.088c0.541,0.631,0.952,1.554,1.16,2.55
			h-10.907h-0.111v-4.538c4.221-0.32,7.197-2.107,9.254-5.542c3.864,1.526,7.675,5.888,7.675,11.514v1.435h2.869v-1.435
			C170.754,38.275,166.595,32.245,160.866,30.206"/>
	</g>
	<g>
		<path fill="#5C2E91" d="M22.324,44.541h-4.682l-0.52-2.079l-0.26-0.262l-0.26,0.262c-1.04,1.559-3.64,2.598-5.72,2.598
			C4.64,45.06,1,40.901,1,35.181V20.097h5.201v15.084c0.104,3.327,1.716,5.198,5.201,5.198c3.016,0,5.564-2.443,5.72-5.459V20.097
			h5.202V44.541z"/>
		<path fill="#5C2E91" d="M26.329,20.097h4.681l0.52,2.08l0.261,0.26l0.26-0.26c1.041-1.56,3.641-2.6,5.721-2.6
			c6.24,0,9.88,4.16,9.88,9.88v15.083h-5.2V29.458c-0.157-3.329-1.769-5.199-5.201-5.199c-3.067,0-5.617,2.495-5.722,5.514v14.769
			h-5.2V20.097z"/>
		<rect x="51.336" y="20.097" fill="#5C2E91" width="5.098" height="24.444"/>
		<path fill="#5C2E91" d="M58.666,37.78l4.681-1.821c0.26,2.601,2.339,4.525,4.939,4.525c2.6,0,3.901-1.405,3.901-2.964
			c0-1.51-1.04-2.289-3.12-2.654c-0.885-0.155-1.769-0.363-2.6-0.573c-4.163-1.039-7.022-3.535-7.022-7.435
			c0-4.682,4.42-7.282,8.581-7.282c4.42,0,8.321,2.859,8.841,7.282h-5.2c0-1.561-1.562-2.705-3.642-2.705
			c-2.081,0-3.64,1.144-3.64,2.705c0,1.559,1.248,2.442,3.12,2.808l2.6,0.52c4.058,0.884,7.022,3.172,7.022,7.334
			c0,4.159-3.901,7.539-8.842,7.539C63.347,45.06,59.705,42.2,58.666,37.78"/>
		<path fill="#5C2E91" d="M90.797,40.378c4.94,0,7.542-3.64,7.542-8.061c0-4.419-2.602-8.059-7.542-8.059
			c-4.939,0-7.541,3.64-7.541,8.059C83.256,36.739,85.857,40.378,90.797,40.378 M90.797,19.577c6.761,0,12.741,5.201,12.741,12.741
			c0,7.541-5.98,12.742-12.741,12.742c-6.76,0-12.74-5.201-12.74-12.742C78.057,24.778,84.037,19.577,90.797,19.577"/>
		<path fill="#5C2E91" d="M106.11,20.097h4.68l0.521,2.08l0.259,0.26l0.26-0.26c1.041-1.56,3.642-2.6,5.722-2.6
			c6.24,0,9.881,4.16,9.881,9.88v15.083h-5.201V29.458c-0.157-3.329-1.768-5.199-5.202-5.199c-3.067,0-5.617,2.495-5.72,5.514
			v14.769h-5.201V20.097z"/>
	</g>
	<g>
		<path fill="#5C2E91" d="M203.75,40.492c4.939,0,7.54-3.639,7.54-8.06c0-4.421-2.6-8.061-7.54-8.061
			c-4.421,0-7.542,3.64-7.542,8.061C196.208,36.853,199.33,40.492,203.75,40.492 M191.527,11.746h5.148v10.545l0.312,0.259
			l0.26-0.259c1.561-1.561,4.212-2.6,6.761-2.6c6.762,0,12.483,5.201,12.483,12.742c0,7.539-5.721,12.74-12.483,12.74
			c-2.6,0-5.201-1.04-6.761-2.6l-0.26-0.261l-0.312,0.261l-0.467,2.08h-4.681V11.746z"/>
		<path fill="#5C2E91" d="M230.316,24.372c-4.94,0-7.592,3.64-7.592,8.061c0,4.42,2.651,8.06,7.592,8.06
			c4.421,0,7.541-3.639,7.541-8.06C237.857,28.011,234.737,24.372,230.316,24.372 M242.54,44.652h-4.682l-0.519-2.08l-0.26-0.26
			l-0.26,0.26c-1.561,1.561-4.161,2.6-6.761,2.6c-6.761,0-12.482-5.201-12.482-12.74c0-7.542,5.722-12.742,12.482-12.742
			c2.6,0,5.2,1.039,6.761,2.6l0.26,0.26l0.26-0.26l0.519-2.08h4.682V44.652z"/>
		<path fill="#5C2E91" d="M246.547,20.21h4.68l0.52,2.081l0.262,0.259l0.258-0.259c1.041-1.561,3.642-2.6,5.723-2.6
			c6.239,0,9.881,4.16,9.881,9.882v15.08h-5.201v-15.08c-0.156-3.331-1.768-5.201-5.201-5.201c-3.067,0-5.615,2.497-5.721,5.513
			v14.768h-5.199V20.21z"/>
		<polygon fill="#5C2E91" points="286.646,20.21 293.406,20.21 281.651,31.964 293.926,44.652 287.167,44.652 276.764,34.252 
			276.764,44.652 271.563,44.652 271.563,11.747 276.764,11.747 276.764,30.092 		"/>
	</g>
</g>
</svg>
